<?xml version="1.0" encoding="UTF-8" standalone="no"?>
<!-- Created with Inkscape (http://www.inkscape.org/) -->

<svg
   xmlns:dc="http://purl.org/dc/elements/1.1/"
   xmlns:cc="http://creativecommons.org/ns#"
   xmlns:rdf="http://www.w3.org/1999/02/22-rdf-syntax-ns#"
   xmlns:svg="http://www.w3.org/2000/svg"
   xmlns="http://www.w3.org/2000/svg"
   xmlns:sodipodi="http://sodipodi.sourceforge.net/DTD/sodipodi-0.dtd"
   xmlns:inkscape="http://www.inkscape.org/namespaces/inkscape"
   width="40"
   height="320"
   id="svg2"
   version="1.1"
   inkscape:version="0.48.2 r9819"
   sodipodi:docname="blocks.svg"
   inkscape:export-filename="/home/jcx/Dropbox/Public/Projects/gamework.js/src/game/img/blocks.png"
   inkscape:export-xdpi="90"
   inkscape:export-ydpi="90">
  <defs
     id="defs4" />
  <sodipodi:namedview
     id="base"
     pagecolor="#ffffff"
     bordercolor="#666666"
     borderopacity="1.0"
     inkscape:pageopacity="0.0"
     inkscape:pageshadow="2"
     inkscape:zoom="1"
     inkscape:cx="-81.025365"
     inkscape:cy="126.07762"
     inkscape:document-units="px"
     inkscape:current-layer="layer1"
     showgrid="false"
     inkscape:window-width="1920"
     inkscape:window-height="1120"
     inkscape:window-x="0"
     inkscape:window-y="25"
     inkscape:window-maximized="1">
    <inkscape:grid
       type="xygrid"
       id="grid2985"
       empspacing="5"
       visible="true"
       enabled="true"
       snapvisiblegridlinesonly="true" />
  </sodipodi:namedview>
  <metadata
     id="metadata7">
    <rdf:RDF>
      <cc:Work
         rdf:about="">
        <dc:format>image/svg+xml</dc:format>
        <dc:type
           rdf:resource="http://purl.org/dc/dcmitype/StillImage" />
        <dc:title></dc:title>
      </cc:Work>
    </rdf:RDF>
  </metadata>
  <g
     inkscape:label="Layer 1"
     inkscape:groupmode="layer"
     id="layer1"
     transform="translate(0,-732.3622)">
    <rect
       style="opacity:1;fill:#e0e0e0;fill-opacity:1;stroke:none"
       id="rect2987"
       width="40"
       height="40"
       x="0"
       y="0"
       transform="translate(0,732.3622)"
       ry="2" />
    <path
       style="fill:#000000;stroke:none;stroke-width:1px;stroke-linecap:butt;stroke-linejoin:miter;stroke-opacity:1;opacity:0.25"
       d="M 39.40625 0.59375 L 38.71875 1.28125 C 38.8995 1.462 39 1.723 39 2 L 39 38 C 39 38.554 38.554 39 38 39 L 2 39 C 1.723 39 1.462 38.8995 1.28125 38.71875 L 0.59375 39.40625 C 0.95525 39.76775 1.446 40 2 40 L 38 40 C 39.108 40 40 39.108 40 38 L 40 2 C 40 1.446 39.76775 0.95525 39.40625 0.59375 z "
       transform="translate(0,732.3622)"
       id="path3769" />
    <path
       style="fill:#000000;stroke:none;stroke-width:1px;stroke-linecap:butt;stroke-linejoin:miter;stroke-opacity:1;opacity:0.25"
       d="M 4,36 20,20 36,36 z"
       id="path2995"
       inkscape:connector-curvature="0"
       transform="translate(0,732.3622)" />
    <path
       style="fill:#ffffff;stroke:none;stroke-width:1px;stroke-linecap:butt;stroke-linejoin:miter;stroke-opacity:1;opacity:0.25"
       d="M 20,20 4,4 36,4 z"
       id="path2997"
       inkscape:connector-curvature="0"
       transform="translate(0,732.3622)" />
    <path
       id="path3777"
       d="m 0.59375,771.76845 0.6875,-0.6875 C 1.1005,770.9002 1,770.6392 1,770.3622 l 0,-36 c 0,-0.554 0.446,-1 1,-1 l 36,0 c 0.277,0 0.538,0.1005 0.71875,0.28125 l 0.6875,-0.6875 C 39.04475,732.59445 38.554,732.3622 38,732.3622 l -36,0 c -1.108,0 -2,0.892 -2,2 l 0,36 c 0,0.554 0.23225,1.04475 0.59375,1.40625 z"
       style="opacity:0.25000000000000000;fill:#ffffff;stroke:none"
       inkscape:connector-curvature="0"
       inkscape:transform-center-x="0.296875"
       inkscape:transform-center-y="-0.296875" />
    <path
       style="opacity:0.25000000000000000;fill:#000000;fill-opacity:1;stroke:none"
       d="M 3 3 L 3 4 L 3 37 L 4 36 L 4 4 L 36 4 L 37 3 L 4 3 L 3 3 z "
       transform="translate(0,732.3622)"
       id="rect3779" />
    <path
       id="path3787"
       d="m 37,769.3622 0,-1 0,-33 -1,1 0,32 -32,0 -1,1 33,0 1,0 z"
       style="opacity:0.25;fill:#ffffff;fill-opacity:1;stroke:none"
       inkscape:connector-curvature="0" />
    <rect
       ry="2"
       y="772.36218"
       x="0"
       height="40"
       width="40"
       id="rect3789"
       style="fill:#e00000;fill-opacity:1;stroke:none" />
    <path
       id="path3791"
       d="m 39.40625,772.95595 -0.6875,0.6875 C 38.8995,773.8242 39,774.0852 39,774.3622 l 0,36 c 0,0.554 -0.446,1 -1,1 l -36,0 c -0.277,0 -0.538,-0.1005 -0.71875,-0.28125 l -0.6875,0.6875 C 0.95525,812.12995 1.446,812.3622 2,812.3622 l 36,0 c 1.108,0 2,-0.892 2,-2 l 0,-36 c 0,-0.554 -0.23225,-1.04475 -0.59375,-1.40625 z"
       style="opacity:0.25;fill:#000000;stroke:none"
       inkscape:connector-curvature="0" />
    <path
       inkscape:connector-curvature="0"
       id="path3793"
       d="m 4,808.3622 16,-16 16,16 z"
       style="opacity:0.25;fill:#000000;stroke:none" />
    <path
       inkscape:connector-curvature="0"
       id="path3795"
       d="m 20,792.3622 -16,-16 32,0 z"
       style="opacity:0.25;fill:#ffffff;stroke:none" />
    <path
       inkscape:transform-center-y="-0.296875"
       inkscape:transform-center-x="0.296875"
       inkscape:connector-curvature="0"
       style="opacity:0.25;fill:#ffffff;stroke:none"
       d="m 0.59375,811.76845 0.6875,-0.6875 C 1.1005,810.9002 1,810.6392 1,810.3622 l 0,-36 c 0,-0.554 0.446,-1 1,-1 l 36,0 c 0.277,0 0.538,0.1005 0.71875,0.28125 l 0.6875,-0.6875 C 39.04475,772.59445 38.554,772.3622 38,772.3622 l -36,0 c -1.108,0 -2,0.892 -2,2 l 0,36 c 0,0.554 0.23225,1.04475 0.59375,1.40625 z"
       id="path3797" />
    <path
       id="path3799"
       d="m 3,775.3622 0,1 0,33 1,-1 0,-32 32,0 1,-1 -33,0 -1,0 z"
       style="opacity:0.25;fill:#000000;fill-opacity:1;stroke:none"
       inkscape:connector-curvature="0" />
    <path
       inkscape:connector-curvature="0"
       style="opacity:0.25;fill:#ffffff;fill-opacity:1;stroke:none"
       d="m 37,809.3622 0,-1 0,-33 -1,1 0,32 -32,0 -1,1 33,0 1,0 z"
       id="path3801" />
    <rect
       style="fill:#e0c000;fill-opacity:1;stroke:none"
       id="rect3803"
       width="40"
       height="40"
       x="0"
       y="812.36218"
       ry="2" />
    <path
       inkscape:connector-curvature="0"
       style="opacity:0.25;fill:#000000;stroke:none"
       d="m 39.40625,812.95595 -0.6875,0.6875 C 38.8995,813.8242 39,814.0852 39,814.3622 l 0,36 c 0,0.554 -0.446,1 -1,1 l -36,0 c -0.277,0 -0.538,-0.1005 -0.71875,-0.28125 l -0.6875,0.6875 C 0.95525,852.12995 1.446,852.3622 2,852.3622 l 36,0 c 1.108,0 2,-0.892 2,-2 l 0,-36 c 0,-0.554 -0.23225,-1.04475 -0.59375,-1.40625 z"
       id="path3805" />
    <path
       style="opacity:0.25;fill:#000000;stroke:none"
       d="m 4,848.3622 16,-16 16,16 z"
       id="path3807"
       inkscape:connector-curvature="0" />
    <path
       style="opacity:0.25;fill:#ffffff;stroke:none"
       d="m 20,832.3622 -16,-16 32,0 z"
       id="path3809"
       inkscape:connector-curvature="0" />
    <path
       id="path3811"
       d="m 0.59375,851.76845 0.6875,-0.6875 C 1.1005,850.9002 1,850.6392 1,850.3622 l 0,-36 c 0,-0.554 0.446,-1 1,-1 l 36,0 c 0.277,0 0.538,0.1005 0.71875,0.28125 l 0.6875,-0.6875 C 39.04475,812.59445 38.554,812.3622 38,812.3622 l -36,0 c -1.108,0 -2,0.892 -2,2 l 0,36 c 0,0.554 0.23225,1.04475 0.59375,1.40625 z"
       style="opacity:0.25;fill:#ffffff;stroke:none"
       inkscape:connector-curvature="0"
       inkscape:transform-center-x="0.296875"
       inkscape:transform-center-y="-0.296875" />
    <path
       inkscape:connector-curvature="0"
       style="opacity:0.25;fill:#000000;fill-opacity:1;stroke:none"
       d="m 3,815.3622 0,1 0,33 1,-1 0,-32 32,0 1,-1 -33,0 -1,0 z"
       id="path3813" />
    <path
       id="path3815"
       d="m 37,849.3622 0,-1 0,-33 -1,1 0,32 -32,0 -1,1 33,0 1,0 z"
       style="opacity:0.25;fill:#ffffff;fill-opacity:1;stroke:none"
       inkscape:connector-curvature="0" />
    <rect
       ry="2"
       y="852.36218"
       x="0"
       height="40"
       width="40"
       id="rect3817"
       style="fill:#00c000;fill-opacity:1;stroke:none" />
    <path
       id="path3819"
       d="m 39.40625,852.95595 -0.6875,0.6875 C 38.8995,853.8242 39,854.0852 39,854.3622 l 0,36 c 0,0.554 -0.446,1 -1,1 l -36,0 c -0.277,0 -0.538,-0.1005 -0.71875,-0.28125 l -0.6875,0.6875 C 0.95525,892.12995 1.446,892.3622 2,892.3622 l 36,0 c 1.108,0 2,-0.892 2,-2 l 0,-36 c 0,-0.554 -0.23225,-1.04475 -0.59375,-1.40625 z"
       style="opacity:0.25;fill:#000000;stroke:none"
       inkscape:connector-curvature="0" />
    <path
       inkscape:connector-curvature="0"
       id="path3821"
       d="m 4,888.3622 16,-16 16,16 z"
       style="opacity:0.25;fill:#000000;stroke:none" />
    <path
       inkscape:connector-curvature="0"
       id="path3823"
       d="m 20,872.3622 -16,-16 32,0 z"
       style="opacity:0.25;fill:#ffffff;stroke:none" />
    <path
       inkscape:transform-center-y="-0.296875"
       inkscape:transform-center-x="0.296875"
       inkscape:connector-curvature="0"
       style="opacity:0.25;fill:#ffffff;stroke:none"
       d="m 0.59375,891.76845 0.6875,-0.6875 C 1.1005,890.9002 1,890.6392 1,890.3622 l 0,-36 c 0,-0.554 0.446,-1 1,-1 l 36,0 c 0.277,0 0.538,0.1005 0.71875,0.28125 l 0.6875,-0.6875 C 39.04475,852.59445 38.554,852.3622 38,852.3622 l -36,0 c -1.108,0 -2,0.892 -2,2 l 0,36 c 0,0.554 0.23225,1.04475 0.59375,1.40625 z"
       id="path3825" />
    <path
       id="path3827"
       d="m 3,855.3622 0,1 0,33 1,-1 0,-32 32,0 1,-1 -33,0 -1,0 z"
       style="opacity:0.25;fill:#000000;fill-opacity:1;stroke:none"
       inkscape:connector-curvature="0" />
    <path
       inkscape:connector-curvature="0"
       style="opacity:0.25;fill:#ffffff;fill-opacity:1;stroke:none"
       d="m 37,889.3622 0,-1 0,-33 -1,1 0,32 -32,0 -1,1 33,0 1,0 z"
       id="path3829" />
    <rect
       style="fill:#00c0e0;fill-opacity:1;stroke:none"
       id="rect3831"
       width="40"
       height="40"
       x="0"
       y="892.36218"
       ry="2" />
    <path
       inkscape:connector-curvature="0"
       style="opacity:0.25;fill:#000000;stroke:none"
       d="m 39.40625,892.95595 -0.6875,0.6875 C 38.8995,893.8242 39,894.0852 39,894.3622 l 0,36 c 0,0.554 -0.446,1 -1,1 l -36,0 c -0.277,0 -0.538,-0.1005 -0.71875,-0.28125 l -0.6875,0.6875 C 0.95525,932.12995 1.446,932.3622 2,932.3622 l 36,0 c 1.108,0 2,-0.892 2,-2 l 0,-36 c 0,-0.554 -0.23225,-1.04475 -0.59375,-1.40625 z"
       id="path3833" />
    <path
       style="opacity:0.25;fill:#000000;stroke:none"
       d="m 4,928.3622 16,-16 16,16 z"
       id="path3835"
       inkscape:connector-curvature="0" />
    <path
       style="opacity:0.25;fill:#ffffff;stroke:none"
       d="m 20,912.3622 -16,-16 32,0 z"
       id="path3837"
       inkscape:connector-curvature="0" />
    <path
       id="path3839"
       d="m 0.59375,931.76845 0.6875,-0.6875 C 1.1005,930.9002 1,930.6392 1,930.3622 l 0,-36 c 0,-0.554 0.446,-1 1,-1 l 36,0 c 0.277,0 0.538,0.1005 0.71875,0.28125 l 0.6875,-0.6875 C 39.04475,892.59445 38.554,892.3622 38,892.3622 l -36,0 c -1.108,0 -2,0.892 -2,2 l 0,36 c 0,0.554 0.23225,1.04475 0.59375,1.40625 z"
       style="opacity:0.25;fill:#ffffff;stroke:none"
       inkscape:connector-curvature="0"
       inkscape:transform-center-x="0.296875"
       inkscape:transform-center-y="-0.296875" />
    <path
       inkscape:connector-curvature="0"
       style="opacity:0.25;fill:#000000;fill-opacity:1;stroke:none"
       d="m 3,895.3622 0,1 0,33 1,-1 0,-32 32,0 1,-1 -33,0 -1,0 z"
       id="path3841" />
    <path
       id="path3843"
       d="m 37,929.3622 0,-1 0,-33 -1,1 0,32 -32,0 -1,1 33,0 1,0 z"
       style="opacity:0.25;fill:#ffffff;fill-opacity:1;stroke:none"
       inkscape:connector-curvature="0" />
    <rect
       ry="2"
       y="932.36218"
       x="0"
       height="40"
       width="40"
       id="rect3845"
       style="fill:#0000e0;fill-opacity:1;stroke:none" />
    <path
       id="path3847"
       d="m 39.40625,932.95595 -0.6875,0.6875 C 38.8995,933.8242 39,934.0852 39,934.3622 l 0,36 c 0,0.554 -0.446,1 -1,1 l -36,0 c -0.277,0 -0.538,-0.1005 -0.71875,-0.28125 l -0.6875,0.6875 C 0.95525,972.12995 1.446,972.3622 2,972.3622 l 36,0 c 1.108,0 2,-0.892 2,-2 l 0,-36 c 0,-0.554 -0.23225,-1.04475 -0.59375,-1.40625 z"
       style="opacity:0.25;fill:#000000;stroke:none"
       inkscape:connector-curvature="0" />
    <path
       inkscape:connector-curvature="0"
       id="path3849"
       d="m 4,968.3622 16,-16 16,16 z"
       style="opacity:0.25;fill:#000000;stroke:none" />
    <path
       inkscape:connector-curvature="0"
       id="path3851"
       d="m 20,952.3622 -16,-16 32,0 z"
       style="opacity:0.25;fill:#ffffff;stroke:none" />
    <path
       inkscape:transform-center-y="-0.296875"
       inkscape:transform-center-x="0.296875"
       inkscape:connector-curvature="0"
       style="opacity:0.25;fill:#ffffff;stroke:none"
       d="m 0.59375,971.76845 0.6875,-0.6875 C 1.1005,970.9002 1,970.6392 1,970.3622 l 0,-36 c 0,-0.554 0.446,-1 1,-1 l 36,0 c 0.277,0 0.538,0.1005 0.71875,0.28125 l 0.6875,-0.6875 C 39.04475,932.59445 38.554,932.3622 38,932.3622 l -36,0 c -1.108,0 -2,0.892 -2,2 l 0,36 c 0,0.554 0.23225,1.04475 0.59375,1.40625 z"
       id="path3853" />
    <path
       id="path3855"
       d="m 3,935.3622 0,1 0,33 1,-1 0,-32 32,0 1,-1 -33,0 -1,0 z"
       style="opacity:0.25;fill:#000000;fill-opacity:1;stroke:none"
       inkscape:connector-curvature="0" />
    <path
       inkscape:connector-curvature="0"
       style="opacity:0.25;fill:#ffffff;fill-opacity:1;stroke:none"
       d="m 37,969.3622 0,-1 0,-33 -1,1 0,32 -32,0 -1,1 33,0 1,0 z"
       id="path3857" />
    <rect
       style="fill:#c000e0;fill-opacity:1;stroke:none"
       id="rect3859"
       width="40"
       height="40"
       x="0"
       y="972.36218"
       ry="2" />
    <path
       inkscape:connector-curvature="0"
       style="opacity:0.25;fill:#000000;stroke:none"
       d="m 39.40625,972.95595 -0.6875,0.6875 C 38.8995,973.8242 39,974.0852 39,974.3622 l 0,36 c 0,0.554 -0.446,1 -1,1 l -36,0 c -0.277,0 -0.538,-0.1005 -0.71875,-0.2812 l -0.6875,0.6875 c 0.3615,0.3614 0.85225,0.5937 1.40625,0.5937 l 36,0 c 1.108,0 2,-0.892 2,-2 l 0,-36 c 0,-0.554 -0.23225,-1.04475 -0.59375,-1.40625 z"
       id="path3861" />
    <path
       style="opacity:0.25;fill:#000000;stroke:none"
       d="m 4,1008.3622 16,-16 16,16 z"
       id="path3863"
       inkscape:connector-curvature="0" />
    <path
       style="opacity:0.25;fill:#ffffff;stroke:none"
       d="m 20,992.3622 -16,-16 32,0 z"
       id="path3865"
       inkscape:connector-curvature="0" />
    <path
       id="path3867"
       d="m 0.59375,1011.7685 0.6875,-0.6875 C 1.1005,1010.9002 1,1010.6392 1,1010.3622 l 0,-36 c 0,-0.554 0.446,-1 1,-1 l 36,0 c 0.277,0 0.538,0.1005 0.71875,0.28125 l 0.6875,-0.6875 C 39.04475,972.59445 38.554,972.3622 38,972.3622 l -36,0 c -1.108,0 -2,0.892 -2,2 l 0,36 c 0,0.554 0.23225,1.0448 0.59375,1.4063 z"
       style="opacity:0.25;fill:#ffffff;stroke:none"
       inkscape:connector-curvature="0"
       inkscape:transform-center-x="0.296875"
       inkscape:transform-center-y="-0.296875" />
    <path
       inkscape:connector-curvature="0"
       style="opacity:0.25;fill:#000000;fill-opacity:1;stroke:none"
       d="m 3,975.3622 0,1 0,33 1,-1 0,-32 32,0 1,-1 -33,0 -1,0 z"
       id="path3869" />
    <path
       id="path3871"
       d="m 37,1009.3622 0,-1 0,-33 -1,1 0,32 -32,0 -1,1 33,0 1,0 z"
       style="opacity:0.25;fill:#ffffff;fill-opacity:1;stroke:none"
       inkscape:connector-curvature="0" />
    <rect
       ry="2"
       y="1012.3622"
       x="0"
       height="40"
       width="40"
       id="rect3873"
       style="fill:#202020;fill-opacity:1;stroke:none" />
    <path
       id="path3875"
       d="m 39.40625,1012.956 -0.6875,0.6875 C 38.8995,1013.8242 39,1014.0852 39,1014.3622 l 0,36 c 0,0.554 -0.446,1 -1,1 l -36,0 c -0.277,0 -0.538,-0.1005 -0.71875,-0.2812 l -0.6875,0.6875 c 0.3615,0.3614 0.85225,0.5937 1.40625,0.5937 l 36,0 c 1.108,0 2,-0.892 2,-2 l 0,-36 c 0,-0.554 -0.23225,-1.0448 -0.59375,-1.4062 z"
       style="opacity:0.25;fill:#000000;stroke:none"
       inkscape:connector-curvature="0" />
    <path
       inkscape:connector-curvature="0"
       id="path3877"
       d="m 4,1048.3622 16,-16 16,16 z"
       style="opacity:0.25;fill:#000000;stroke:none" />
    <path
       inkscape:connector-curvature="0"
       id="path3879"
       d="m 20,1032.3622 -16,-16 32,0 z"
       style="opacity:0.25;fill:#ffffff;stroke:none" />
    <path
       inkscape:transform-center-y="-0.296875"
       inkscape:transform-center-x="0.296875"
       inkscape:connector-curvature="0"
       style="opacity:0.25;fill:#ffffff;stroke:none"
       d="m 0.59375,1051.7685 0.6875,-0.6875 C 1.1005,1050.9002 1,1050.6392 1,1050.3622 l 0,-36 c 0,-0.554 0.446,-1 1,-1 l 36,0 c 0.277,0 0.538,0.1005 0.71875,0.2813 l 0.6875,-0.6875 C 39.04475,1012.5945 38.554,1012.3622 38,1012.3622 l -36,0 c -1.108,0 -2,0.892 -2,2 l 0,36 c 0,0.554 0.23225,1.0448 0.59375,1.4063 z"
       id="path3881" />
    <path
       id="path3883"
       d="m 3,1015.3622 0,1 0,33 1,-1 0,-32 32,0 1,-1 -33,0 -1,0 z"
       style="opacity:0.25;fill:#000000;fill-opacity:1;stroke:none"
       inkscape:connector-curvature="0" />
    <path
       inkscape:connector-curvature="0"
       style="opacity:0.25;fill:#ffffff;fill-opacity:1;stroke:none"
       d="m 37,1049.3622 0,-1 0,-33 -1,1 0,32 -32,0 -1,1 33,0 1,0 z"
       id="path3885" />
  </g>
</svg>
