<?xml version="1.0" encoding="UTF-8" standalone="no"?>
<!-- Created with Inkscape (http://www.inkscape.org/) -->

<svg
   xmlns:dc="http://purl.org/dc/elements/1.1/"
   xmlns:cc="http://creativecommons.org/ns#"
   xmlns:rdf="http://www.w3.org/1999/02/22-rdf-syntax-ns#"
   xmlns:svg="http://www.w3.org/2000/svg"
   xmlns="http://www.w3.org/2000/svg"
   xmlns:sodipodi="http://sodipodi.sourceforge.net/DTD/sodipodi-0.dtd"
   xmlns:inkscape="http://www.inkscape.org/namespaces/inkscape"
   width="120"
   height="120"
   id="svg2"
   version="1.1"
   inkscape:version="0.48.2 r9819"
   sodipodi:docname="ground.svg"
   inkscape:export-filename="/home/.jcx/Dropbox/Projects/gamework.js/src/game/ground.png"
   inkscape:export-xdpi="90"
   inkscape:export-ydpi="90">
  <defs
     id="defs4" />
  <sodipodi:namedview
     id="base"
     pagecolor="#ffffff"
     bordercolor="#666666"
     borderopacity="1.0"
     inkscape:pageopacity="0.0"
     inkscape:pageshadow="2"
     inkscape:zoom="1"
     inkscape:cx="55.227302"
     inkscape:cy="82.812606"
     inkscape:document-units="px"
     inkscape:current-layer="layer1"
     showgrid="false"
     inkscape:window-width="1280"
     inkscape:window-height="977"
     inkscape:window-x="-4"
     inkscape:window-y="-4"
     inkscape:window-maximized="1">
    <inkscape:grid
       type="xygrid"
       id="grid2985"
       empspacing="10"
       visible="true"
       enabled="true"
       snapvisiblegridlinesonly="true"
       originx="0px"
       originy="0px" />
  </sodipodi:namedview>
  <metadata
     id="metadata7">
    <rdf:RDF>
      <cc:Work
         rdf:about="">
        <dc:format>image/svg+xml</dc:format>
        <dc:type
           rdf:resource="http://purl.org/dc/dcmitype/StillImage" />
        <dc:title />
      </cc:Work>
    </rdf:RDF>
  </metadata>
  <g
     inkscape:label="Layer 1"
     inkscape:groupmode="layer"
     id="layer1"
     transform="translate(0,-932.36218)">
    <rect
       style="fill:#552200;fill-rule:evenodd;stroke:#000000;stroke-width:1px;stroke-linecap:butt;stroke-linejoin:miter;stroke-opacity:1"
       id="rect2987"
       width="117"
       height="118"
       x="1.5"
       y="1.5"
       transform="translate(0,932.36218)"
       ry="3" />
    <path
       style="fill:#008000;stroke:#000000;stroke-width:1px;stroke-linecap:butt;stroke-linejoin:miter;stroke-opacity:1"
       d="m 4.5,932.86218 c -2.216,0 -4,1.784 -4,4 l 0,7 c 0,1 1,3 4.5,3 2,0 3,-3 5,-3 2,0 3,3 5,3 2,0 3,-3 5,-3 2,0 3,3 5,3 2,0 3,-3 5,-3 2,0 3,3 5,3 2,0 3,-3 5,-3 2,0 3,3 5,3 2,0 3,-3 5,-3 2,0 3,3 5,3 2,0 3,-3 5,-3 2,0 3,3 5,3 2,0 3,-3 5,-3 2,0 3,3 5,3 2,0 3,-3 5,-3 2,0 3,3 5,3 2,0 3,-3 5,-3 2,0 3,3 5,3 2,0 3,-3 5,-3 2,0 3,3 5,3 2,0 3,-3 5,-3 2,0 3,3 5,3 3.5,0 4.5,-2 4.5,-3 l 0,-7.03125 c 0,-2.19869 -1.77006,-3.96875 -3.96875,-3.96875 z"
       id="path2991"
       inkscape:connector-curvature="0"
       sodipodi:nodetypes="ssccsssssssssssssssssssssccsss" />
    <path
       style="fill:#000000;fill-opacity:1;fill-rule:evenodd;stroke:none"
       d="m 2.4027744,937.29586 c -0.4640947,1.73202 -0.3040531,3.39446 0.2824257,4.70528 1.1633117,-0.84196 2.1331295,-2.20166 2.5972256,-3.93368 C 5.7465203,936.33544 5.5864788,934.673 5,933.36218 c -1.1633118,0.84196 -2.1331295,2.20166 -2.5972256,3.93368 z"
       id="path2985"
       inkscape:connector-curvature="0" />
    <path
       inkscape:connector-curvature="0"
       id="path2992"
       d="m 11.402775,938.29586 c -0.464095,1.73202 -0.304053,3.39446 0.282425,4.70528 1.163312,-0.84196 2.13313,-2.20166 2.597226,-3.93368 0.464095,-1.73202 0.304053,-3.39446 -0.282426,-4.70528 -1.163311,0.84196 -2.133129,2.20166 -2.597225,3.93368 z"
       style="fill:#000000;fill-opacity:1;fill-rule:evenodd;stroke:none" />
    <path
       style="fill:#000000;fill-opacity:1;fill-rule:evenodd;stroke:none"
       d="m 22.402775,937.29586 c -0.464095,1.73202 -0.304053,3.39446 0.282425,4.70528 1.163312,-0.84196 2.13313,-2.20166 2.597226,-3.93368 0.464095,-1.73202 0.304053,-3.39446 -0.282426,-4.70528 -1.163311,0.84196 -2.133129,2.20166 -2.597225,3.93368 z"
       id="path2994"
       inkscape:connector-curvature="0" />
    <path
       inkscape:connector-curvature="0"
       id="path2996"
       d="m 31.402775,938.29586 c -0.464095,1.73202 -0.304053,3.39446 0.282425,4.70528 1.163312,-0.84196 2.13313,-2.20166 2.597226,-3.93368 0.464095,-1.73202 0.304053,-3.39446 -0.282426,-4.70528 -1.163311,0.84196 -2.133129,2.20166 -2.597225,3.93368 z"
       style="fill:#000000;fill-opacity:1;fill-rule:evenodd;stroke:none" />
    <path
       inkscape:connector-curvature="0"
       id="path2998"
       d="m 42.402774,937.29586 c -0.464094,1.73202 -0.304053,3.39446 0.282426,4.70528 1.163312,-0.84196 2.13313,-2.20166 2.597226,-3.93368 C 45.74652,936.33544 45.586479,934.673 45,933.36218 c -1.163312,0.84196 -2.13313,2.20166 -2.597226,3.93368 z"
       style="fill:#000000;fill-opacity:1;fill-rule:evenodd;stroke:none" />
    <path
       style="fill:#000000;fill-opacity:1;fill-rule:evenodd;stroke:none"
       d="m 51.402775,938.29586 c -0.464095,1.73202 -0.304053,3.39446 0.282425,4.70528 1.163312,-0.84196 2.13313,-2.20166 2.597226,-3.93368 0.464095,-1.73202 0.304053,-3.39446 -0.282426,-4.70528 -1.163311,0.84196 -2.133129,2.20166 -2.597225,3.93368 z"
       id="path3000"
       inkscape:connector-curvature="0" />
    <path
       inkscape:connector-curvature="0"
       id="path3002"
       d="m 62.402775,937.29586 c -0.464095,1.73202 -0.304053,3.39446 0.282425,4.70528 1.163312,-0.84196 2.13313,-2.20166 2.597226,-3.93368 0.464095,-1.73202 0.304053,-3.39446 -0.282426,-4.70528 -1.163311,0.84196 -2.133129,2.20166 -2.597225,3.93368 z"
       style="fill:#000000;fill-opacity:1;fill-rule:evenodd;stroke:none" />
    <path
       style="fill:#000000;fill-opacity:1;fill-rule:evenodd;stroke:none"
       d="m 71.402775,938.29586 c -0.464095,1.73202 -0.304053,3.39446 0.282425,4.70528 1.163312,-0.84196 2.13313,-2.20166 2.597226,-3.93368 0.464095,-1.73202 0.304053,-3.39446 -0.282426,-4.70528 -1.163311,0.84196 -2.133129,2.20166 -2.597225,3.93368 z"
       id="path3004"
       inkscape:connector-curvature="0" />
    <path
       style="fill:#000000;fill-opacity:1;fill-rule:evenodd;stroke:none"
       d="m 81.402774,937.29586 c -0.464094,1.73202 -0.304053,3.39446 0.282426,4.70528 1.163312,-0.84196 2.13313,-2.20166 2.597226,-3.93368 C 84.74652,936.33544 84.586479,934.673 84,933.36218 c -1.163312,0.84196 -2.13313,2.20166 -2.597226,3.93368 z"
       id="path3014"
       inkscape:connector-curvature="0" />
    <path
       inkscape:connector-curvature="0"
       id="path3016"
       d="m 90.402775,938.29586 c -0.464095,1.73202 -0.304053,3.39446 0.282425,4.70528 1.163312,-0.84196 2.13313,-2.20166 2.597226,-3.93368 0.464095,-1.73202 0.304053,-3.39446 -0.282426,-4.70528 -1.163311,0.84196 -2.133129,2.20166 -2.597225,3.93368 z"
       style="fill:#000000;fill-opacity:1;fill-rule:evenodd;stroke:none" />
    <path
       style="fill:#000000;fill-opacity:1;fill-rule:evenodd;stroke:none"
       d="m 101.40277,937.29586 c -0.46409,1.73202 -0.30405,3.39446 0.28243,4.70528 1.16331,-0.84196 2.13313,-2.20166 2.59723,-3.93368 0.46409,-1.73202 0.30405,-3.39446 -0.28243,-4.70528 -1.16331,0.84196 -2.13313,2.20166 -2.59723,3.93368 z"
       id="path3018"
       inkscape:connector-curvature="0" />
    <path
       inkscape:connector-curvature="0"
       id="path3020"
       d="m 110.40278,938.29586 c -0.4641,1.73202 -0.30406,3.39446 0.28242,4.70528 1.16331,-0.84196 2.13313,-2.20166 2.59723,-3.93368 0.46409,-1.73202 0.30405,-3.39446 -0.28243,-4.70528 -1.16331,0.84196 -2.13313,2.20166 -2.59722,3.93368 z"
       style="fill:#000000;fill-opacity:1;fill-rule:evenodd;stroke:none" />
    <path
       style="fill:#000000;fill-opacity:1;fill-rule:evenodd;stroke:none"
       d="m 17.108054,940.57829 c 1.267926,1.26792 2.787662,1.96054 4.216105,2.10805 -0.147503,-1.42844 -0.840129,-2.94818 -2.108054,-4.21611 -1.267926,-1.26792 -2.787662,-1.96054 -4.216105,-2.10805 0.147503,1.42844 0.840129,2.94818 2.108054,4.21611 z"
       id="path3022"
       inkscape:connector-curvature="0" />
    <path
       inkscape:connector-curvature="0"
       id="path3024"
       d="m 27.108054,937.57829 c 1.267926,1.26792 2.787662,1.96054 4.216105,2.10805 -0.147503,-1.42844 -0.840129,-2.94818 -2.108054,-4.21611 -1.267926,-1.26792 -2.787662,-1.96054 -4.216105,-2.10805 0.147503,1.42844 0.840129,2.94818 2.108054,4.21611 z"
       style="fill:#000000;fill-opacity:1;fill-rule:evenodd;stroke:none" />
    <path
       style="fill:#000000;fill-opacity:1;fill-rule:evenodd;stroke:none"
       d="m 7.108054,939.57829 c 1.267926,1.26792 2.787662,1.96054 4.216105,2.10805 C 11.176656,940.2579 10.48403,938.73816 9.216105,937.47023 7.948179,936.20231 6.428443,935.50969 5,935.36218 c 0.147503,1.42844 0.840129,2.94818 2.108054,4.21611 z"
       id="path3026"
       inkscape:connector-curvature="0" />
    <path
       inkscape:connector-curvature="0"
       id="path3028"
       d="m 37.108054,938.57829 c 1.267926,1.26792 2.787662,1.96054 4.216105,2.10805 -0.147503,-1.42844 -0.840129,-2.94818 -2.108054,-4.21611 -1.267926,-1.26792 -2.787662,-1.96054 -4.216105,-2.10805 0.147503,1.42844 0.840129,2.94818 2.108054,4.21611 z"
       style="fill:#000000;fill-opacity:1;fill-rule:evenodd;stroke:none" />
    <path
       inkscape:connector-curvature="0"
       id="path3030"
       d="m 57.108054,940.57829 c 1.267926,1.26792 2.787662,1.96054 4.216105,2.10805 -0.147503,-1.42844 -0.840129,-2.94818 -2.108054,-4.21611 -1.267926,-1.26792 -2.787662,-1.96054 -4.216105,-2.10805 0.147503,1.42844 0.840129,2.94818 2.108054,4.21611 z"
       style="fill:#000000;fill-opacity:1;fill-rule:evenodd;stroke:none" />
    <path
       style="fill:#000000;fill-opacity:1;fill-rule:evenodd;stroke:none"
       d="m 67.108054,937.57829 c 1.267926,1.26792 2.787662,1.96054 4.216105,2.10805 -0.147503,-1.42844 -0.840129,-2.94818 -2.108054,-4.21611 -1.267926,-1.26792 -2.787662,-1.96054 -4.216105,-2.10805 0.147503,1.42844 0.840129,2.94818 2.108054,4.21611 z"
       id="path3032"
       inkscape:connector-curvature="0" />
    <path
       inkscape:connector-curvature="0"
       id="path3034"
       d="m 47.108054,939.57829 c 1.267926,1.26792 2.787662,1.96054 4.216105,2.10805 -0.147503,-1.42844 -0.840129,-2.94818 -2.108054,-4.21611 -1.267926,-1.26792 -2.787662,-1.96054 -4.216105,-2.10805 0.147503,1.42844 0.840129,2.94818 2.108054,4.21611 z"
       style="fill:#000000;fill-opacity:1;fill-rule:evenodd;stroke:none" />
    <path
       style="fill:#000000;fill-opacity:1;fill-rule:evenodd;stroke:none"
       d="m 77.108054,938.57829 c 1.267926,1.26792 2.787662,1.96054 4.216105,2.10805 -0.147503,-1.42844 -0.840129,-2.94818 -2.108054,-4.21611 -1.267926,-1.26792 -2.787662,-1.96054 -4.216105,-2.10805 0.147503,1.42844 0.840129,2.94818 2.108054,4.21611 z"
       id="path3036"
       inkscape:connector-curvature="0" />
    <path
       style="fill:#000000;fill-opacity:1;fill-rule:evenodd;stroke:none"
       d="m 96.108054,940.57829 c 1.267926,1.26792 2.787662,1.96054 4.216106,2.10805 -0.1475,-1.42844 -0.84013,-2.94818 -2.108055,-4.21611 -1.267926,-1.26792 -2.787662,-1.96054 -4.216105,-2.10805 0.147503,1.42844 0.840129,2.94818 2.108054,4.21611 z"
       id="path3038"
       inkscape:connector-curvature="0" />
    <path
       inkscape:connector-curvature="0"
       id="path3040"
       d="m 106.10805,937.57829 c 1.26793,1.26792 2.78767,1.96054 4.21611,2.10805 -0.1475,-1.42844 -0.84013,-2.94818 -2.10805,-4.21611 -1.26793,-1.26792 -2.78767,-1.96054 -4.21611,-2.10805 0.1475,1.42844 0.84013,2.94818 2.10805,4.21611 z"
       style="fill:#000000;fill-opacity:1;fill-rule:evenodd;stroke:none" />
    <path
       style="fill:#000000;fill-opacity:1;fill-rule:evenodd;stroke:none"
       d="m 86.108054,939.57829 c 1.267926,1.26792 2.787662,1.96054 4.216105,2.10805 -0.147503,-1.42844 -0.840129,-2.94818 -2.108054,-4.21611 -1.267926,-1.26792 -2.787662,-1.96054 -4.216105,-2.10805 0.147503,1.42844 0.840129,2.94818 2.108054,4.21611 z"
       id="path3042"
       inkscape:connector-curvature="0" />
    <path
       inkscape:connector-curvature="0"
       id="path3044"
       d="m 116.10805,938.57829 c 1.26793,1.26792 2.78767,1.96054 4.21611,2.10805 -0.1475,-1.42844 -0.84013,-2.94818 -2.10805,-4.21611 -1.26793,-1.26792 -2.78767,-1.96054 -4.21611,-2.10805 0.1475,1.42844 0.84013,2.94818 2.10805,4.21611 z"
       style="fill:#000000;fill-opacity:1;fill-rule:evenodd;stroke:none" />
  </g>
</svg>
