<?xml version="1.0" encoding="UTF-8" standalone="no"?>
<!-- Created with Inkscape (http://www.inkscape.org/) -->

<svg
   xmlns:dc="http://purl.org/dc/elements/1.1/"
   xmlns:cc="http://creativecommons.org/ns#"
   xmlns:rdf="http://www.w3.org/1999/02/22-rdf-syntax-ns#"
   xmlns:svg="http://www.w3.org/2000/svg"
   xmlns="http://www.w3.org/2000/svg"
   xmlns:sodipodi="http://sodipodi.sourceforge.net/DTD/sodipodi-0.dtd"
   xmlns:inkscape="http://www.inkscape.org/namespaces/inkscape"
   width="120"
   height="120"
   id="svg2"
   version="1.1"
   inkscape:version="0.48.2 r9819"
   sodipodi:docname="ground.svg"
   inkscape:export-filename="/home/.jcx/Dropbox/Projects/gamework.js/src/game/ground.png"
   inkscape:export-xdpi="90"
   inkscape:export-ydpi="90">
  <defs
     id="defs4" />
  <sodipodi:namedview
     id="base"
     pagecolor="#ffffff"
     bordercolor="#666666"
     borderopacity="1.0"
     inkscape:pageopacity="0.0"
     inkscape:pageshadow="2"
     inkscape:zoom="1"
     inkscape:cx="115.54869"
     inkscape:cy="52.378749"
     inkscape:document-units="px"
     inkscape:current-layer="layer1"
     showgrid="false"
     inkscape:window-width="1920"
     inkscape:window-height="1120"
     inkscape:window-x="0"
     inkscape:window-y="25"
     inkscape:window-maximized="1">
    <inkscape:grid
       type="xygrid"
       id="grid2985"
       empspacing="10"
       visible="true"
       enabled="true"
       snapvisiblegridlinesonly="true"
       originx="0.5px"
       originy="0.5px" />
  </sodipodi:namedview>
  <metadata
     id="metadata7">
    <rdf:RDF>
      <cc:Work
         rdf:about="">
        <dc:format>image/svg+xml</dc:format>
        <dc:type
           rdf:resource="http://purl.org/dc/dcmitype/StillImage" />
        <dc:title />
      </cc:Work>
    </rdf:RDF>
  </metadata>
  <g
     inkscape:label="Layer 1"
     inkscape:groupmode="layer"
     id="layer1"
     transform="translate(0,-932.36218)">
    <rect
       style="fill:#552200;fill-rule:evenodd;stroke:#000000;stroke-width:1px;stroke-linecap:butt;stroke-linejoin:miter;stroke-opacity:1"
       id="rect2987"
       width="117"
       height="118"
       x="1.5"
       y="1.5"
       transform="translate(0,932.36218)"
       ry="3" />
    <path
       style="fill:#008000;stroke:#000000;stroke-width:1px;stroke-linecap:butt;stroke-linejoin:miter;stroke-opacity:1"
       d="m 4.5,932.86218 c -2.216,0 -4,1.784 -4,4 l 0,7 c 0,1 1,3 4.5,3 2,0 3,-3 5,-3 2,0 3,3 5,3 2,0 3,-3 5,-3 2,0 3,3 5,3 2,0 3,-3 5,-3 2,0 3,3 5,3 2,0 3,-3 5,-3 2,0 3,3 5,3 2,0 3,-3 5,-3 2,0 3,3 5,3 2,0 3,-3 5,-3 2,0 3,3 5,3 2,0 3,-3 5,-3 2,0 3,3 5,3 2,0 3,-3 5,-3 2,0 3,3 5,3 2,0 3,-3 5,-3 2,0 3,3 5,3 2,0 3,-3 5,-3 2,0 3,3 5,3 2,0 3,-3 5,-3 2,0 3,3 5,3 3.5,0 4.5,-2 4.5,-3 l 0,-7.03125 c 0,-2.19869 -1.77006,-3.96875 -3.96875,-3.96875 z"
       id="path2991"
       inkscape:connector-curvature="0"
       sodipodi:nodetypes="ssccsssssssssssssssssssssccsss" />
  </g>
</svg>
