<?xml version="1.0" encoding="UTF-8" standalone="no"?>
<!-- Created with Inkscape (http://www.inkscape.org/) -->

<svg
   xmlns:dc="http://purl.org/dc/elements/1.1/"
   xmlns:cc="http://creativecommons.org/ns#"
   xmlns:rdf="http://www.w3.org/1999/02/22-rdf-syntax-ns#"
   xmlns:svg="http://www.w3.org/2000/svg"
   xmlns="http://www.w3.org/2000/svg"
   xmlns:sodipodi="http://sodipodi.sourceforge.net/DTD/sodipodi-0.dtd"
   xmlns:inkscape="http://www.inkscape.org/namespaces/inkscape"
   width="196"
   height="196.0022"
   id="svg2"
   version="1.1"
   inkscape:version="0.48.2 r9819"
   sodipodi:docname="logo.svg"
   inkscape:export-filename="/home/jcx/Projects/gamework.js/lab/img/large-logo.png"
   inkscape:export-xdpi="90"
   inkscape:export-ydpi="90">
  <defs
     id="defs4">
    <filter
       inkscape:collect="always"
       id="filter4079"
       x="-0.28800255"
       width="1.5760051"
       y="-0.28799745"
       height="1.5759949">
      <feGaussianBlur
         inkscape:collect="always"
         stdDeviation="14.880132"
         id="feGaussianBlur4081" />
    </filter>
  </defs>
  <sodipodi:namedview
     id="base"
     pagecolor="#000000"
     bordercolor="#666666"
     borderopacity="1.0"
     inkscape:pageopacity="0"
     inkscape:pageshadow="2"
     inkscape:zoom="1.4142136"
     inkscape:cx="-55.567224"
     inkscape:cy="228.51248"
     inkscape:document-units="px"
     inkscape:current-layer="layer1"
     showgrid="false"
     fit-margin-top="36"
     fit-margin-left="36"
     fit-margin-right="36"
     fit-margin-bottom="36"
     inkscape:window-width="1345"
     inkscape:window-height="948"
     inkscape:window-x="0"
     inkscape:window-y="25"
     inkscape:window-maximized="0">
    <inkscape:grid
       type="xygrid"
       id="grid2985"
       empspacing="5"
       visible="true"
       enabled="true"
       snapvisiblegridlinesonly="true" />
  </sodipodi:namedview>
  <metadata
     id="metadata7">
    <rdf:RDF>
      <cc:Work
         rdf:about="">
        <dc:format>image/svg+xml</dc:format>
        <dc:type
           rdf:resource="http://purl.org/dc/dcmitype/StillImage" />
        <dc:title></dc:title>
      </cc:Work>
    </rdf:RDF>
  </metadata>
  <g
     inkscape:label="Layer 1"
     inkscape:groupmode="layer"
     id="layer1"
     transform="translate(-467,-504.3706)">
    <path
       inkscape:connector-curvature="0"
       d="m 29,112.0022 c 0,2.76142 -2.238576,5 -5,5 -2.761424,0 -5,-2.23858 -5,-5 0,-2.76143 2.238576,-5 5,-5 2.761424,0 5,2.23857 5,5 z m -12,0 c 0,2.76142 -2.238576,5 -5,5 -2.761424,0 -5,-2.23858 -5,-5 0,-2.76143 2.238576,-5 5,-5 2.761424,0 5,2.23857 5,5 z m -12,0 c 0,2.76142 -2.238576,5 -5,5 -2.761424,0 -5,-2.23858 -5,-5 0,-2.76143 2.238576,-5 5,-5 2.761424,0 5,2.23857 5,5 z m -24,0 c 0,2.76142 -2.238576,5 -5,5 -2.761424,0 -5,-2.23858 -5,-5 0,-2.76143 2.238576,-5 5,-5 2.761424,0 5,2.23857 5,5 z m -12,0 c 0,2.76142 -2.238576,5 -5,5 -2.761424,0 -5,-2.23858 -5,-5 0,-2.76143 2.238576,-5 5,-5 2.761424,0 5,2.23857 5,5 z M -28.1875,0 a 2.0002,2.0002 0 0 0 -1.21875,0.59375 l -30,30 A 2.0002,2.0002 0 0 0 -60,32 l 0,80 c 0,6.60372 5.39628,12 12,12 l 80,0 a 2.0002,2.0002 0 0 0 1.40625,-0.59375 l 30,-30 A 2.0002,2.0002 0 0 0 64,92 L 64,12 C 64,5.39628 58.60372,0 52,0 l -1,0 -79,0 a 2.0002,2.0002 0 0 0 -0.1875,0 z M -19,7 c 2.761424,0 5,2.23857 5,5 0,2.76142 -2.238576,5 -5,5 -2.761424,0 -5,-2.23858 -5,-5 0,-2.76143 2.238576,-5 5,-5 z m 12,0 c 2.761424,0 5,2.23857 5,5 0,2.76142 -2.238576,5 -5,5 -2.761424,0 -5,-2.23858 -5,-5 0,-2.76143 2.238576,-5 5,-5 z m 36,0 c 2.761424,0 5,2.23857 5,5 0,2.76142 -2.238576,5 -5,5 -2.761424,0 -5,-2.23858 -5,-5 0,-2.76143 2.238576,-5 5,-5 z m 12,0 c 2.76142,0 5,2.23857 5,5 0,2.76142 -2.23858,5 -5,5 -2.761424,0 -5,-2.23858 -5,-5 0,-2.76143 2.238576,-5 5,-5 z m 12,0 c 2.76142,0 5,2.23857 5,5 0,2.76142 -2.23858,5 -5,5 -2.76142,0 -5,-2.23858 -5,-5 0,-2.76143 2.23858,-5 5,-5 z m -63.0625,26.5625 c 6.46799,0 8.53125,2.47001 8.53125,7.75 l 0,7.96875 0.34375,0 c 1.54,0 2.375,0.835 2.375,2.375 0,1.716 -0.87075,2.3125 -2.71875,2.3125 l -2.03125,0 c -1.364,0 -1.98475,-0.379 -2.46875,-1.875 -2.376,1.584 -5.0845,2.40625 -7.8125,2.40625 -4.62,0 -7.40625,-2.40225 -7.40625,-6.40625 0,-4.268 3.51476,-6.78125 9.71875,-6.78125 1.496,0 3.0965,0.1295 4.8125,0.4375 l 0,-0.40625 c 0,-2.596 -1.2675,-3.96875 -3.6875,-3.96875 -2.728,0 -4.75725,2.125 -6.78125,2.125 -1.54,0 -2.34375,-0.88025 -2.34375,-2.15625 0,-2.244 3.48476,-3.78125 9.46875,-3.78125 z m -28.21875,0.03125 c 2.552,0 4.4855,0.81525 5.9375,2.53125 l 0,-1.125 c 0,-0.572 0.38275,-0.875 1.21875,-0.875 l 3.53125,0 c 1.804,0 2.6875,0.53975 2.6875,2.34375 0,1.54 -0.80375,2.375 -2.34375,2.375 l -0.34375,0 0,14.78125 c 0,4.59793 -1.75263,7.27398 -5.6875,8.375 l 66.09375,0 c -0.92915,0.26427 -1.375,0.91085 -1.375,2.21875 0,1.54 0.78525,2.40625 2.28125,2.40625 l 0.34375,0 0,18.65625 -0.34375,0 c -1.496,0 -2.28125,0.7725 -2.28125,2.3125 0,1.804 0.821,2.375 2.625,2.375 l 3.875,0 c 1.012,0 1.25,-0.39425 1.25,-1.40625 l 0,-4.4375 2.65625,-2.4375 3.53125,4.28125 c -1.188,0.44 -1.59375,1.025 -1.59375,2.125 0,1.32 0.89625,1.875 2.65625,1.875 l 5.28125,0 c 1.804,0 2.71875,-0.571 2.71875,-2.375 0,-1.584 -0.828,-2.375 -2.5,-2.375 -0.132,0 -0.35525,0.0625 -0.53125,0.0625 l -5.6875,-7.0625 1.5625,-1.5625 c 1.1,-1.144 1.96575,-1.80425 3.59375,-2.15625 1.276,-0.264 1.8125,-0.62325 1.8125,-2.03125 0,-1.804 -0.8395,-2.34375 -2.6875,-2.34375 l -4.75,0 c -1.804,0 -2.65625,0.439 -2.65625,2.375 0,0.968 0.201,1.41075 1.125,1.71875 l -4.53125,4.09375 0,-15.03125 C 39.1875,62.61167 39.07704,62.19397 38.71875,62 L 60,62 60,91.1875 31.1875,120 -48,120 c -4.44196,0 -8,-3.55804 -8,-8 l 0,-50 12.78125,0 c -1.29359,-0.46282 -1.9375,-1.18575 -1.9375,-2.25 0,-1.364 0.86625,-2.34375 2.40625,-2.34375 0.88,0 2.374,0.40625 4.75,0.40625 3.96,0 5.375,-1.25175 5.375,-5.34375 0,-0.308 -0.03125,-0.61675 -0.03125,-0.96875 -1.936,1.144 -3.89375,1.71875 -6.09375,1.71875 -5.76399,0 -9.75,-3.99301 -9.75,-9.625 0,-5.76399 4.27876,-10 10.21875,-10 z m 52.03125,0 c 1.628,0 2.85725,0.636 3.78125,2 1.232,-1.32 2.865,-2 4.625,-2 4.268,0 5.5,2.60325 5.5,7.53125 l 0,8.15625 0.3125,0 c 1.32,0 2.03125,0.7725 2.03125,2.3125 0,1.804 -0.75975,2.375 -2.34375,2.375 l -3.65625,0 c -0.792,0 -1.25,-0.33425 -1.25,-0.90625 l 0,-12.15625 c 0,-1.936 -0.57475,-2.875 -1.71875,-2.875 -1.364,0 -2.3125,1.25475 -2.3125,3.71875 l 0,7.53125 0.3125,0 c 1.364,0 2.09375,0.7725 2.09375,2.3125 0,1.804 -0.82225,2.375 -2.40625,2.375 l -3.59375,0 c -0.792,0 -1.28125,-0.33425 -1.28125,-0.90625 l 0,-12.15625 c 0,-1.936 -0.57475,-2.875 -1.71875,-2.875 -1.364,0 -2.28125,1.25475 -2.28125,3.71875 l 0,7.53125 0.3125,0 c 1.364,0 2.0625,0.7725 2.0625,2.3125 0,1.804 -0.791,2.375 -2.375,2.375 l -4.875,0 c -1.584,0 -2.34375,-0.615 -2.34375,-2.375 0,-1.54 0.71125,-2.3125 2.03125,-2.3125 l 0.3125,0 0,-10.4375 -0.3125,0 c -1.32,0 -2.03125,-0.835 -2.03125,-2.375 0,-1.76 0.75975,-2.34375 2.34375,-2.34375 l 2.90625,0 c 1.144,0 1.5,0.4 1.5,1.5 l 0,0.21875 c 1.056,-1.496 2.527,-2.25 4.375,-2.25 z m 29.28125,0.0625 c 6.51199,0 10.75,4.42151 10.75,9.4375 0,1.892 -0.881,2.21875 -3.125,2.21875 l -13.84375,0 c 0.748,3.212 2.84225,4.75 6.40625,4.75 4.62,0 6.69725,-2.59375 8.28125,-2.59375 1.144,0 1.9375,0.81775 1.9375,2.09375 0,2.464 -4.11426,4.9375 -10.40625,4.9375 -7.08399,0 -11.6875,-4.49751 -11.6875,-10.4375 0,-5.93999 4.55951,-10.40625 11.6875,-10.40625 z m -0.46875,4.125 c -3.124,0 -5.002,1.3715 -5.75,4.1875 l 11.5625,0 c -0.484,-2.684 -2.6005,-4.1875 -5.8125,-4.1875 z m -80.25,0.34375 c -2.816,0 -4.875,2.23825 -4.875,5.40625 0,3.124 2.059,5.375 4.875,5.375 2.816,0 4.90625,-2.251 4.90625,-5.375 0,-3.168 -2.09025,-5.40625 -4.90625,-5.40625 z m 27.34375,6.53125 c -3.256,0 -5.09375,1.08825 -5.09375,3.15625 0,1.452 1.18775,2.375 3.34375,2.375 1.98,0 3.703,-0.562 5.375,-1.75 l 0,-3.3125 c -1.364,-0.308 -2.569,-0.46875 -3.625,-0.46875 z m 33.875,24.90625 c -3.388,0 -5.846,1.53225 -8.75,4.65625 l 0,-3.15625 c 0,-0.572 -0.458,-0.9375 -1.25,-0.9375 l -4.5625,0 c -1.804,0 -2.6875,0.53975 -2.6875,2.34375 0,1.804 0.8835,2.375 2.6875,2.375 l 0.90625,0 0,10.4375 -1.625,0 c -1.804,0 -2.71875,0.5085 -2.71875,2.3125 0,1.804 0.91475,2.375 2.71875,2.375 l 12.03125,0 c 1.804,0 2.6875,-0.571 2.6875,-2.375 0,-1.804 -0.8835,-2.3125 -2.6875,-2.3125 l -5.0625,0 0,-6.96875 c 2.464,-2.508 4.35475,-3.78125 5.71875,-3.78125 1.188,0 2.365,1.40625 4.125,1.40625 1.76,0 3.03125,-1.17175 3.03125,-2.84375 0,-2.068 -1.6585,-3.53125 -4.5625,-3.53125 z m -33.8125,0.09375 c -7.12799,0 -11.75,4.46626 -11.75,10.40625 0,5.93999 4.62201,10.4375 11.75,10.4375 7.12799,0 11.6875,-4.49751 11.6875,-10.4375 0,-5.93999 -4.55951,-10.40625 -11.6875,-10.40625 z m -38.1875,0.46875 c -1.804,0 -2.6875,0.53975 -2.6875,2.34375 0,1.54 0.80375,2.375 2.34375,2.375 l 0.34375,0 2.75,13.53125 c 0.308,1.54 1.2955,2.125 3.1875,2.125 1.848,0 3.01025,-0.629 3.40625,-2.125 l 2.25,-8.34375 2.5,8.34375 c 0.484,1.584 1.53975,2.125 3.34375,2.125 1.892,0 2.942,-0.585 3.25,-2.125 l 2.6875,-13.53125 0.34375,0 c 1.54,0 2.375,-0.835 2.375,-2.375 0,-1.804 -0.91475,-2.34375 -2.71875,-2.34375 l -5.0625,0 c -1.804,0 -2.71875,0.53975 -2.71875,2.34375 0,1.54 0.835,2.375 2.375,2.375 l 0.34375,0 -1.625,10.5625 -2.375,-8.1875 c -0.396,-1.32 -0.74575,-2.125 -2.59375,-2.125 -1.804,0 -2.26025,0.761 -2.65625,2.125 l -2.21875,8.1875 -1.71875,-10.5625 0.34375,0 c 1.54,0 2.3125,-0.835 2.3125,-2.375 0,-1.804 -0.85225,-2.34375 -2.65625,-2.34375 l -5.125,0 z m 38.1875,4.0625 c 3.432,0 5.71875,2.45575 5.71875,5.84375 0,3.388 -2.33075,5.9375 -5.71875,5.9375 -3.344,0 -5.78125,-2.5055 -5.78125,-5.9375 0,-3.388 2.39325,-5.84375 5.78125,-5.84375 z M -48.5,107 c -2.521278,0.25605 -4.5,2.41117 -4.5,5 0,2.76143 2.23858,5 5,5 2.76142,0 5,-2.23857 5,-5 0,-2.76142 -2.23858,-5 -5,-5 -0.172589,0 -0.331915,-0.0171 -0.5,0 z"
       style="fill:#00ff00;fill-opacity:1;stroke:none;filter:url(#filter4079);opacity:0.5"
       transform="translate(563,540.3728)"
       id="path3861" />
    <text
       xml:space="preserve"
       style="font-size:40px;font-style:normal;font-weight:normal;line-height:125%;letter-spacing:0px;word-spacing:0px;fill:#000000;fill-opacity:1;stroke:none;font-family:Sans"
       x="627.5"
       y="601.64789"
       id="text3001"
       sodipodi:linespacing="125%"><tspan
         sodipodi:role="line"
         id="tspan3003"
         x="627.5"
         y="601.64789" /></text>
    <path
       id="path2996"
       transform="translate(563,540.3728)"
       style="fill:#00aa00;fill-opacity:1;stroke:none;opacity:0.667"
       d="m 29,112.0022 c 0,2.76142 -2.238576,5 -5,5 -2.761424,0 -5,-2.23858 -5,-5 0,-2.76143 2.238576,-5 5,-5 2.761424,0 5,2.23857 5,5 z m -12,0 c 0,2.76142 -2.238576,5 -5,5 -2.761424,0 -5,-2.23858 -5,-5 0,-2.76143 2.238576,-5 5,-5 2.761424,0 5,2.23857 5,5 z m -12,0 c 0,2.76142 -2.238576,5 -5,5 -2.761424,0 -5,-2.23858 -5,-5 0,-2.76143 2.238576,-5 5,-5 2.761424,0 5,2.23857 5,5 z m -24,0 c 0,2.76142 -2.238576,5 -5,5 -2.761424,0 -5,-2.23858 -5,-5 0,-2.76143 2.238576,-5 5,-5 2.761424,0 5,2.23857 5,5 z m -12,0 c 0,2.76142 -2.238576,5 -5,5 -2.761424,0 -5,-2.23858 -5,-5 0,-2.76143 2.238576,-5 5,-5 2.761424,0 5,2.23857 5,5 z M -28.1875,0 a 2.0002,2.0002 0 0 0 -1.21875,0.59375 l -30,30 A 2.0002,2.0002 0 0 0 -60,32 l 0,80 c 0,6.60372 5.39628,12 12,12 l 80,0 a 2.0002,2.0002 0 0 0 1.40625,-0.59375 l 30,-30 A 2.0002,2.0002 0 0 0 64,92 L 64,12 C 64,5.39628 58.60372,0 52,0 l -1,0 -79,0 a 2.0002,2.0002 0 0 0 -0.1875,0 z M -19,7 c 2.761424,0 5,2.23857 5,5 0,2.76142 -2.238576,5 -5,5 -2.761424,0 -5,-2.23858 -5,-5 0,-2.76143 2.238576,-5 5,-5 z m 12,0 c 2.761424,0 5,2.23857 5,5 0,2.76142 -2.238576,5 -5,5 -2.761424,0 -5,-2.23858 -5,-5 0,-2.76143 2.238576,-5 5,-5 z m 36,0 c 2.761424,0 5,2.23857 5,5 0,2.76142 -2.238576,5 -5,5 -2.761424,0 -5,-2.23858 -5,-5 0,-2.76143 2.238576,-5 5,-5 z m 12,0 c 2.76142,0 5,2.23857 5,5 0,2.76142 -2.23858,5 -5,5 -2.761424,0 -5,-2.23858 -5,-5 0,-2.76143 2.238576,-5 5,-5 z m 12,0 c 2.76142,0 5,2.23857 5,5 0,2.76142 -2.23858,5 -5,5 -2.76142,0 -5,-2.23858 -5,-5 0,-2.76143 2.23858,-5 5,-5 z m -63.0625,26.5625 c 6.46799,0 8.53125,2.47001 8.53125,7.75 l 0,7.96875 0.34375,0 c 1.54,0 2.375,0.835 2.375,2.375 0,1.716 -0.87075,2.3125 -2.71875,2.3125 l -2.03125,0 c -1.364,0 -1.98475,-0.379 -2.46875,-1.875 -2.376,1.584 -5.0845,2.40625 -7.8125,2.40625 -4.62,0 -7.40625,-2.40225 -7.40625,-6.40625 0,-4.268 3.51476,-6.78125 9.71875,-6.78125 1.496,0 3.0965,0.1295 4.8125,0.4375 l 0,-0.40625 c 0,-2.596 -1.2675,-3.96875 -3.6875,-3.96875 -2.728,0 -4.75725,2.125 -6.78125,2.125 -1.54,0 -2.34375,-0.88025 -2.34375,-2.15625 0,-2.244 3.48476,-3.78125 9.46875,-3.78125 z m -28.21875,0.03125 c 2.552,0 4.4855,0.81525 5.9375,2.53125 l 0,-1.125 c 0,-0.572 0.38275,-0.875 1.21875,-0.875 l 3.53125,0 c 1.804,0 2.6875,0.53975 2.6875,2.34375 0,1.54 -0.80375,2.375 -2.34375,2.375 l -0.34375,0 0,14.78125 c 0,4.59793 -1.75263,7.27398 -5.6875,8.375 l 66.09375,0 c -0.92915,0.26427 -1.375,0.91085 -1.375,2.21875 0,1.54 0.78525,2.40625 2.28125,2.40625 l 0.34375,0 0,18.65625 -0.34375,0 c -1.496,0 -2.28125,0.7725 -2.28125,2.3125 0,1.804 0.821,2.375 2.625,2.375 l 3.875,0 c 1.012,0 1.25,-0.39425 1.25,-1.40625 l 0,-4.4375 2.65625,-2.4375 3.53125,4.28125 c -1.188,0.44 -1.59375,1.025 -1.59375,2.125 0,1.32 0.89625,1.875 2.65625,1.875 l 5.28125,0 c 1.804,0 2.71875,-0.571 2.71875,-2.375 0,-1.584 -0.828,-2.375 -2.5,-2.375 -0.132,0 -0.35525,0.0625 -0.53125,0.0625 l -5.6875,-7.0625 1.5625,-1.5625 c 1.1,-1.144 1.96575,-1.80425 3.59375,-2.15625 1.276,-0.264 1.8125,-0.62325 1.8125,-2.03125 0,-1.804 -0.8395,-2.34375 -2.6875,-2.34375 l -4.75,0 c -1.804,0 -2.65625,0.439 -2.65625,2.375 0,0.968 0.201,1.41075 1.125,1.71875 l -4.53125,4.09375 0,-15.03125 C 39.1875,62.61167 39.07704,62.19397 38.71875,62 L 60,62 60,91.1875 31.1875,120 -48,120 c -4.44196,0 -8,-3.55804 -8,-8 l 0,-50 12.78125,0 c -1.29359,-0.46282 -1.9375,-1.18575 -1.9375,-2.25 0,-1.364 0.86625,-2.34375 2.40625,-2.34375 0.88,0 2.374,0.40625 4.75,0.40625 3.96,0 5.375,-1.25175 5.375,-5.34375 0,-0.308 -0.03125,-0.61675 -0.03125,-0.96875 -1.936,1.144 -3.89375,1.71875 -6.09375,1.71875 -5.76399,0 -9.75,-3.99301 -9.75,-9.625 0,-5.76399 4.27876,-10 10.21875,-10 z m 52.03125,0 c 1.628,0 2.85725,0.636 3.78125,2 1.232,-1.32 2.865,-2 4.625,-2 4.268,0 5.5,2.60325 5.5,7.53125 l 0,8.15625 0.3125,0 c 1.32,0 2.03125,0.7725 2.03125,2.3125 0,1.804 -0.75975,2.375 -2.34375,2.375 l -3.65625,0 c -0.792,0 -1.25,-0.33425 -1.25,-0.90625 l 0,-12.15625 c 0,-1.936 -0.57475,-2.875 -1.71875,-2.875 -1.364,0 -2.3125,1.25475 -2.3125,3.71875 l 0,7.53125 0.3125,0 c 1.364,0 2.09375,0.7725 2.09375,2.3125 0,1.804 -0.82225,2.375 -2.40625,2.375 l -3.59375,0 c -0.792,0 -1.28125,-0.33425 -1.28125,-0.90625 l 0,-12.15625 c 0,-1.936 -0.57475,-2.875 -1.71875,-2.875 -1.364,0 -2.28125,1.25475 -2.28125,3.71875 l 0,7.53125 0.3125,0 c 1.364,0 2.0625,0.7725 2.0625,2.3125 0,1.804 -0.791,2.375 -2.375,2.375 l -4.875,0 c -1.584,0 -2.34375,-0.615 -2.34375,-2.375 0,-1.54 0.71125,-2.3125 2.03125,-2.3125 l 0.3125,0 0,-10.4375 -0.3125,0 c -1.32,0 -2.03125,-0.835 -2.03125,-2.375 0,-1.76 0.75975,-2.34375 2.34375,-2.34375 l 2.90625,0 c 1.144,0 1.5,0.4 1.5,1.5 l 0,0.21875 c 1.056,-1.496 2.527,-2.25 4.375,-2.25 z m 29.28125,0.0625 c 6.51199,0 10.75,4.42151 10.75,9.4375 0,1.892 -0.881,2.21875 -3.125,2.21875 l -13.84375,0 c 0.748,3.212 2.84225,4.75 6.40625,4.75 4.62,0 6.69725,-2.59375 8.28125,-2.59375 1.144,0 1.9375,0.81775 1.9375,2.09375 0,2.464 -4.11426,4.9375 -10.40625,4.9375 -7.08399,0 -11.6875,-4.49751 -11.6875,-10.4375 0,-5.93999 4.55951,-10.40625 11.6875,-10.40625 z m -0.46875,4.125 c -3.124,0 -5.002,1.3715 -5.75,4.1875 l 11.5625,0 c -0.484,-2.684 -2.6005,-4.1875 -5.8125,-4.1875 z m -80.25,0.34375 c -2.816,0 -4.875,2.23825 -4.875,5.40625 0,3.124 2.059,5.375 4.875,5.375 2.816,0 4.90625,-2.251 4.90625,-5.375 0,-3.168 -2.09025,-5.40625 -4.90625,-5.40625 z m 27.34375,6.53125 c -3.256,0 -5.09375,1.08825 -5.09375,3.15625 0,1.452 1.18775,2.375 3.34375,2.375 1.98,0 3.703,-0.562 5.375,-1.75 l 0,-3.3125 c -1.364,-0.308 -2.569,-0.46875 -3.625,-0.46875 z m 33.875,24.90625 c -3.388,0 -5.846,1.53225 -8.75,4.65625 l 0,-3.15625 c 0,-0.572 -0.458,-0.9375 -1.25,-0.9375 l -4.5625,0 c -1.804,0 -2.6875,0.53975 -2.6875,2.34375 0,1.804 0.8835,2.375 2.6875,2.375 l 0.90625,0 0,10.4375 -1.625,0 c -1.804,0 -2.71875,0.5085 -2.71875,2.3125 0,1.804 0.91475,2.375 2.71875,2.375 l 12.03125,0 c 1.804,0 2.6875,-0.571 2.6875,-2.375 0,-1.804 -0.8835,-2.3125 -2.6875,-2.3125 l -5.0625,0 0,-6.96875 c 2.464,-2.508 4.35475,-3.78125 5.71875,-3.78125 1.188,0 2.365,1.40625 4.125,1.40625 1.76,0 3.03125,-1.17175 3.03125,-2.84375 0,-2.068 -1.6585,-3.53125 -4.5625,-3.53125 z m -33.8125,0.09375 c -7.12799,0 -11.75,4.46626 -11.75,10.40625 0,5.93999 4.62201,10.4375 11.75,10.4375 7.12799,0 11.6875,-4.49751 11.6875,-10.4375 0,-5.93999 -4.55951,-10.40625 -11.6875,-10.40625 z m -38.1875,0.46875 c -1.804,0 -2.6875,0.53975 -2.6875,2.34375 0,1.54 0.80375,2.375 2.34375,2.375 l 0.34375,0 2.75,13.53125 c 0.308,1.54 1.2955,2.125 3.1875,2.125 1.848,0 3.01025,-0.629 3.40625,-2.125 l 2.25,-8.34375 2.5,8.34375 c 0.484,1.584 1.53975,2.125 3.34375,2.125 1.892,0 2.942,-0.585 3.25,-2.125 l 2.6875,-13.53125 0.34375,0 c 1.54,0 2.375,-0.835 2.375,-2.375 0,-1.804 -0.91475,-2.34375 -2.71875,-2.34375 l -5.0625,0 c -1.804,0 -2.71875,0.53975 -2.71875,2.34375 0,1.54 0.835,2.375 2.375,2.375 l 0.34375,0 -1.625,10.5625 -2.375,-8.1875 c -0.396,-1.32 -0.74575,-2.125 -2.59375,-2.125 -1.804,0 -2.26025,0.761 -2.65625,2.125 l -2.21875,8.1875 -1.71875,-10.5625 0.34375,0 c 1.54,0 2.3125,-0.835 2.3125,-2.375 0,-1.804 -0.85225,-2.34375 -2.65625,-2.34375 l -5.125,0 z m 38.1875,4.0625 c 3.432,0 5.71875,2.45575 5.71875,5.84375 0,3.388 -2.33075,5.9375 -5.71875,5.9375 -3.344,0 -5.78125,-2.5055 -5.78125,-5.9375 0,-3.388 2.39325,-5.84375 5.78125,-5.84375 z M -48.5,107 c -2.521278,0.25605 -4.5,2.41117 -4.5,5 0,2.76143 2.23858,5 5,5 2.76142,0 5,-2.23857 5,-5 0,-2.76142 -2.23858,-5 -5,-5 -0.172589,0 -0.331915,-0.0171 -0.5,0 z"
       inkscape:connector-curvature="0" />
  </g>
</svg>
